HIERARCHY
ROOT Hips
{
  OFFSET 5.80788e-005 67.184 3.4734
  CHANNELS 6 Xposition Yposition Zposition Zrotation Xrotation Yrotation
  JOINT Chest
  {
    OFFSET 0 8.7983 -4.7612
    CHANNELS 3 Zrotation Xrotation Yrotation
    JOINT Chest2
    {
      OFFSET 0 8.0291 0.4195
      CHANNELS 3 Zrotation Xrotation Yrotation
      JOINT Chest3
      {
        OFFSET 0 9.9351 -2.2114
        CHANNELS 3 Zrotation Xrotation Yrotation
        JOINT Neck
        {
          OFFSET 0 22.3885 -0.4656
          CHANNELS 3 Zrotation Xrotation Yrotation
          JOINT Head
          {
            OFFSET -0.0001 12.643 3.4389
            CHANNELS 3 Zrotation Xrotation Yrotation
            End Site
            {
              OFFSET 0.0001 17.6655 0.5274
            }
          }
        }
        JOINT LeftCollar
        {
          OFFSET 2.2603 21.606 7.4023
          CHANNELS 3 Zrotation Xrotation Yrotation
          JOINT LeftShoulder
          {
            OFFSET 13.5163 -1.1332 -5.0146
            CHANNELS 3 Zrotation Xrotation Yrotation
            JOINT LeftElbow
            {
              OFFSET -0.0995 -28.05 -0.2431
              CHANNELS 3 Zrotation Xrotation Yrotation
              JOINT LeftWrist
              {
                OFFSET 0.0679 -23.3996 -0.1402
                CHANNELS 3 Zrotation Xrotation Yrotation
                JOINT LeftFinger1
                {
                  OFFSET 0.7932 -9.069 2.5189
                  CHANNELS 3 Zrotation Xrotation Yrotation
                  JOINT LeftFinger11
                  {
                    OFFSET -0.8272 -3.3923 0.5977
                    CHANNELS 3 Zrotation Xrotation Yrotation
                    JOINT LeftFinger12
                    {
                      OFFSET -0.5649 -2.3158 0.4082
                      CHANNELS 3 Zrotation Xrotation Yrotation
                      End Site
                      {
                        OFFSET -0.4919 -1.6479 0.2673
                      }
                    }
                  }
                }
                JOINT LeftFinger2
                {
                  OFFSET 0.9159 -9.2044 0.2193
                  CHANNELS 3 Zrotation Xrotation Yrotation
                  JOINT LeftFinger21
                  {
                    OFFSET 0.0117 -4.1944 -0.0248
                    CHANNELS 3 Zrotation Xrotation Yrotation
                    JOINT LeftFinger22
                    {
                      OFFSET 0.0071 -2.3249 -0.0142
                      CHANNELS 3 Zrotation Xrotation Yrotation
                      End Site
                      {
                        OFFSET -0.1475 -2.0882 0.0028
                      }
                    }
                  }
                }
                JOINT LeftFinger3
                {
                  OFFSET 0.6113 -8.7231 -2.0637
                  CHANNELS 3 Zrotation Xrotation Yrotation
                  JOINT LeftFinger31
                  {
                    OFFSET -0.1927 -3.8059 -0.2383
                    CHANNELS 3 Zrotation Xrotation Yrotation
                    JOINT LeftFinger32
                    {
                      OFFSET -0.1091 -2.1688 -0.1362
                      CHANNELS 3 Zrotation Xrotation Yrotation
                      End Site
                      {
                        OFFSET -0.2358 -1.9176 -0.0906
                      }
                    }
                  }
                }
                JOINT LeftFinger4
                {
                  OFFSET -0.6151 -8.0947 -3.5641
                  CHANNELS 3 Zrotation Xrotation Yrotation
                  JOINT LeftFinger41
                  {
                    OFFSET -0.4882 -2.341 -0.6462
                    CHANNELS 3 Zrotation Xrotation Yrotation
                    JOINT LeftFinger42
                    {
                      OFFSET -0.3575 -1.7167 -0.4742
                      CHANNELS 3 Zrotation Xrotation Yrotation
                      End Site
                      {
                        OFFSET -0.4187 -1.5237 -0.3496
                      }
                    }
                  }
                }
                JOINT LeftFinger0
                {
                  OFFSET -1.42 -1.8761 1.4223
                  CHANNELS 3 Zrotation Xrotation Yrotation
                  JOINT LeftFinger01
                  {
                    OFFSET -1.1471 -3.4929 2.6334
                    CHANNELS 3 Zrotation Xrotation Yrotation
                    JOINT LeftFinger02
                    {
                      OFFSET -0.823 -2.3 1.6571
                      CHANNELS 3 Zrotation Xrotation Yrotation
                      End Site
                      {
                        OFFSET -0.5822 -1.6914 1.1582
                      }
                    }
                  }
                }
              }
            }
          }
        }
        JOINT RightCollar
        {
          OFFSET -2.2603 21.606 7.4023
          CHANNELS 3 Zrotation Xrotation Yrotation
          JOINT RightShoulder
          {
            OFFSET -13.5187 -1.1334 -5.0155
            CHANNELS 3 Zrotation Xrotation Yrotation
            JOINT RightElbow
            {
              OFFSET 0.0994 -28.0499 -0.2431
              CHANNELS 3 Zrotation Xrotation Yrotation
              JOINT RightWrist
              {
                OFFSET -0.0679 -23.3996 -0.1402
                CHANNELS 3 Zrotation Xrotation Yrotation
                JOINT RightFinger1
                {
                  OFFSET -0.7932 -9.0691 2.5189
                  CHANNELS 3 Zrotation Xrotation Yrotation
                  JOINT RightFinger11
                  {
                    OFFSET 0.8272 -3.3923 0.5977
                    CHANNELS 3 Zrotation Xrotation Yrotation
                    JOINT RightFinger12
                    {
                      OFFSET 0.565 -2.3158 0.4082
                      CHANNELS 3 Zrotation Xrotation Yrotation
                      End Site
                      {
                        OFFSET 0.4919 -1.6479 0.2673
                      }
                    }
                  }
                }
                JOINT RightFinger2
                {
                  OFFSET -0.916 -9.2044 0.2193
                  CHANNELS 3 Zrotation Xrotation Yrotation
                  JOINT RightFinger21
                  {
                    OFFSET -0.0117 -4.1944 -0.0248
                    CHANNELS 3 Zrotation Xrotation Yrotation
                    JOINT RightFinger22
                    {
                      OFFSET -0.0071 -2.3249 -0.0142
                      CHANNELS 3 Zrotation Xrotation Yrotation
                      End Site
                      {
                        OFFSET 0.1475 -2.0882 0.0028
                      }
                    }
                  }
                }
                JOINT RightFinger3
                {
                  OFFSET -0.6113 -8.7231 -2.0637
                  CHANNELS 3 Zrotation Xrotation Yrotation
                  JOINT RightFinger31
                  {
                    OFFSET 0.1927 -3.8059 -0.2383
                    CHANNELS 3 Zrotation Xrotation Yrotation
                    JOINT RightFinger32
                    {
                      OFFSET 0.1091 -2.1688 -0.1362
                      CHANNELS 3 Zrotation Xrotation Yrotation
                      End Site
                      {
                        OFFSET 0.2358 -1.9176 -0.0906
                      }
                    }
                  }
                }
                JOINT RightFinger4
                {
                  OFFSET 0.6151 -8.0947 -3.564
                  CHANNELS 3 Zrotation Xrotation Yrotation
                  JOINT RightFinger41
                  {
                    OFFSET 0.4882 -2.341 -0.6462
                    CHANNELS 3 Zrotation Xrotation Yrotation
                    JOINT RightFinger42
                    {
                      OFFSET 0.3574 -1.7166 -0.4742
                      CHANNELS 3 Zrotation Xrotation Yrotation
                      End Site
                      {
                        OFFSET 0.4187 -1.5237 -0.3496
                      }
                    }
                  }
                }
                JOINT RightFinger0
                {
                  OFFSET 1.4199 -1.8761 1.4221
                  CHANNELS 3 Zrotation Xrotation Yrotation
                  JOINT RightFinger01
                  {
                    OFFSET 1.1472 -3.4929 2.6336
                    CHANNELS 3 Zrotation Xrotation Yrotation
                    JOINT RightFinger02
                    {
                      OFFSET 0.8229 -2.3 1.6571
                      CHANNELS 3 Zrotation Xrotation Yrotation
                      End Site
                      {
                        OFFSET 0.5822 -1.6914 1.1582
                      }
                    }
                  }
                }
              }
            }
          }
        }
      }
    }
  }
  JOINT RightHip
  {
    OFFSET -9.412 3.9771 -0.7758
    CHANNELS 3 Zrotation Xrotation Yrotation
    JOINT RightKnee
    {
      OFFSET -0.7531 -40.938 0
      CHANNELS 3 Zrotation Xrotation Yrotation
      JOINT RightAnkle
      {
        OFFSET 0 -40.1986 0
        CHANNELS 3 Zrotation Xrotation Yrotation
        JOINT RightToe
        {
          OFFSET 0 -4.4182 9.239
          CHANNELS 3 Zrotation Xrotation Yrotation
          End Site
          {
            OFFSET 0 0 6.1981
          }
        }
      }
    }
  }
  JOINT LeftHip
  {
    OFFSET 9.4119 3.9773 -0.7758
    CHANNELS 3 Zrotation Xrotation Yrotation
    JOINT LeftKnee
    {
      OFFSET 0.7532 -40.9383 0
      CHANNELS 3 Zrotation Xrotation Yrotation
      JOINT LeftAnkle
      {
        OFFSET 0 -40.1986 0
        CHANNELS 3 Zrotation Xrotation Yrotation
        JOINT LeftToe
        {
          OFFSET 0 -4.4182 9.239
          CHANNELS 3 Zrotation Xrotation Yrotation
          End Site
          {
            OFFSET 0 0 6.1981
          }
        }
      }
    }
  }
}
MOTION
Frames:	4
Frame Time:	0.0333333
-2.47118 1.94612 -1.25444 -130.158 -89.9981 179.843 -6.05898 4.66593 -2.74305 -11.9493 9.59162 -5.00087 -11.9493 9.59165 -5.00089 -7.50522 -6.5092 -18.3196 11.5823 -12.2293 31.6795 -9.76717 -0.675501 -28.0658 29.5833 -21.9738 87.7372 -4.27774 1.17153 -66.1689 -20.7268 61.894 -7.61635 6.36111e-015 1.59028e-015 -1.59028e-015 6.36111e-015 -9.54166e-015 1.59028e-015 3.18055e-015 -4.77083e-015 3.18055e-015 6.36111e-015 1.59028e-015 -1.59028e-015 -0.0128093 0.00232573 7.17078e-005 3.18055e-015 3.18055e-015 -4.77083e-015 6.36111e-015 1.59028e-015 -1.59028e-015 -0.0160448 0.00299451 0.000848656 2.04935e-006 4.21471e-006 1.32129e-005 6.36111e-015 1.59028e-015 -1.59028e-015 -0.0125689 0.00311808 0.0028137 3.18055e-015 0 1.59028e-015 6.36111e-015 1.59028e-015 -1.59028e-015 6.36111e-015 -9.54166e-015 1.59028e-015 3.18055e-015 -4.77083e-015 3.18055e-015 -11.6709 5.63293 -56.8847 -75.5399 -15.6436 23.5021 -72.9715 -53.1015 -48.0179 -0.828446 -8.97611 2.27836 3.53113e-031 -3.18055e-015 6.36111e-015 3.53113e-031 -3.18055e-015 6.36111e-015 -0 0 6.36111e-015 3.53113e-031 -3.18055e-015 6.36111e-015 0.0129454 0.00231282 -8.5237e-005 1.59028e-015 0 -3.18055e-015 3.53113e-031 -3.18055e-015 6.36111e-015 0.016311 0.00302934 -0.00087194 -0 0 3.18055e-015 3.53113e-031 -3.18055e-015 6.36111e-015 0.0145536 0.00367067 -0.00325179 1.59028e-015 6.36111e-015 -3.18055e-015 3.53113e-031 -3.18055e-015 6.36111e-015 3.53113e-031 -3.18055e-015 6.36111e-015 -0 0 6.36111e-015 -71.3572 -55.6978 -66.6437 -10.2729 74.5162 8.29892 8.07196 9.86117 1.65614 -7.95139e-016 -7.95139e-016 1.2424e-015 74.6659 -42.8519 110.632 77.1733 80.3551 -73.9809 10.4911 35.0005 -18.5922 -1.87784e-006 -1.89343e-005 -4.79552e-006 
-2.47118 1.94612 -1.25444 -130.158 -89.9981 179.843 -6.06192 4.73691 -2.74365 -11.9535 9.73334 -4.99494 -11.9536 9.73338 -4.99494 -7.37288 -6.58318 -18.5007 11.6769 -12.3041 31.7062 -9.64869 -0.708489 -28.1181 29.6675 -22.0728 87.765 -4.27771 1.17169 -66.1689 -21.3532 62.045 -6.99881 -9.54166e-015 -4.17205e-006 3.18055e-015 -9.54166e-015 0 4.77083e-015 6.36111e-015 -1.59028e-015 6.36111e-015 -9.54166e-015 -4.17205e-006 3.18055e-015 -0.0127932 0.00231831 8.71183e-005 -6.36111e-015 1.59028e-015 -3.18055e-015 -9.54166e-015 -4.17205e-006 3.18055e-015 -0.016061 0.00299085 0.000851075 -4.06765e-006 9.18838e-007 -2.59633e-006 -9.54166e-015 -4.17205e-006 3.18055e-015 -0.0125654 0.0031182 0.00282981 -1.32417e-031 4.77083e-015 1.59028e-015 -9.54166e-015 -4.17205e-006 3.18055e-015 -9.54166e-015 0 4.77083e-015 6.36111e-015 -1.59028e-015 6.36111e-015 -11.5077 5.6599 -57.0406 -75.54 -15.6436 23.502 -72.9716 -53.1015 -48.0182 -1.14026 -8.99432 2.08123 6.66284e-006 7.43986e-007 2.22431e-006 3.53113e-031 3.18055e-015 -6.36111e-015 1.59028e-015 0 3.18055e-015 6.66284e-006 7.43986e-007 2.22431e-006 0.0129307 0.00231558 -8.87204e-005 9.54166e-015 1.24402e-006 6.36111e-015 6.66284e-006 7.43986e-007 2.22431e-006 0.0163556 0.00303966 -0.000874841 -1.24908e-006 -1.60684e-006 2.95083e-006 6.66284e-006 7.43986e-007 2.22431e-006 0.0146073 0.00368452 -0.0032651 -1.07833e-005 -3.73372e-006 -1.70288e-006 6.66284e-006 7.43986e-007 2.22431e-006 3.53113e-031 3.18055e-015 -6.36111e-015 1.59028e-015 0 3.18055e-015 -71.3572 -55.6978 -66.6437 -10.2729 74.5162 8.29892 8.07196 9.86117 1.65614 -7.95139e-016 -7.95139e-016 1.2424e-015 74.6659 -42.8519 110.632 77.1733 80.3551 -73.9809 10.4911 35.0005 -18.5922 -1.87784e-006 -1.89343e-005 -4.79552e-006 
-2.47118 1.94612 -1.25444 -129.948 -89.9981 -179.947 -6.06463 4.80305 -2.7442 -11.9575 9.86539 -4.98936 -11.9575 9.86539 -4.98939 -7.24082 -6.65751 -18.6815 11.7716 -12.3789 31.733 -9.53836 -0.739313 -28.1667 29.7458 -22.1649 87.7911 -4.27772 1.17163 -66.1689 -21.9432 62.1825 -6.4171 -4.17204e-007 -1.11052e-005 -1.15708e-005 -3.18055e-015 1.59028e-014 1.59028e-015 -1.27222e-014 9.54166e-015 3.18055e-015 -4.17204e-007 -1.11052e-005 -1.15708e-005 -0.0128116 0.00232307 7.82103e-005 3.18055e-015 1.69811e-006 -1.59028e-015 -4.17204e-007 -1.11052e-005 -1.15708e-005 -0.0160514 0.00299904 0.000856963 -3.18055e-015 -4.77083e-015 -1.59028e-015 -4.17204e-007 -1.11052e-005 -1.15708e-005 -0.0125769 0.00312017 0.00283346 -9.54166e-015 -1.74931e-014 4.77083e-015 -4.17204e-007 -1.11052e-005 -1.15708e-005 -3.18055e-015 1.59028e-014 1.59028e-015 -1.27222e-014 9.54166e-015 3.18055e-015 -11.3558 5.68464 -57.1858 -75.54 -15.6436 23.502 -72.9716 -53.1016 -48.0182 -1.43094 -9.01027 1.89739 1.59028e-015 0 3.18055e-015 1.59028e-015 0 3.18055e-015 3.18055e-015 -6.36111e-015 6.36111e-015 1.59028e-015 0 3.18055e-015 0.0129575 0.00232146 -7.96668e-005 -1.59028e-015 -6.36111e-015 -0 1.59028e-015 0 3.18055e-015 0.0163617 0.00303678 -0.00086847 -1.58901e-030 -9.54166e-015 -9.54166e-015 1.59028e-015 0 3.18055e-015 0.014635 0.0036898 -0.00326363 1.76556e-031 -3.18055e-015 3.18055e-015 1.59028e-015 0 3.18055e-015 1.59028e-015 0 3.18055e-015 3.18055e-015 -6.36111e-015 6.36111e-015 -71.3572 -55.6979 -66.6437 -10.2731 74.5163 8.29907 8.07198 9.86111 1.65614 -3.73289e-006 -6.86101e-006 7.5726e-007 74.6658 -42.8519 110.632 77.173 80.3551 -73.9805 10.4911 35.0004 -18.5922 -5.19277e-007 2.62387e-006 -1.40828e-006 
-2.47118 1.94612 -1.25444 -130.158 -89.9981 179.843 -6.0673 4.8692 -2.74474 -11.9614 9.99748 -4.98377 -11.9614 9.9975 -4.98376 -7.10904 -6.73227 -18.8621 11.8664 -12.4537 31.7599 -9.42805 -0.770271 -28.2152 29.8241 -22.2571 87.8172 -4.2777 1.17158 -66.1689 -22.539 62.3172 -5.82963 -3.18055e-015 -4.77083e-015 -0 -6.29272e-006 5.98946e-006 -5.11507e-006 -3.18055e-015 7.95139e-015 -4.77083e-015 -3.18055e-015 -4.77083e-015 -0 -0.0128207 0.00234676 8.59749e-005 6.36111e-015 4.77083e-015 1.59028e-015 -3.18055e-015 -4.77083e-015 -0 -0.0160437 0.0029984 0.000851327 -3.97321e-006 -9.04442e-007 9.5814e-006 -3.18055e-015 -4.77083e-015 -0 -0.0126233 0.00313056 0.00282922 -3.18055e-015 -1.94264e-006 -4.77083e-015 -3.18055e-015 -4.77083e-015 -0 -6.29272e-006 5.98946e-006 -5.11507e-006 -3.18055e-015 7.95139e-015 -4.77083e-015 -11.2036 5.70896 -57.3311 -75.54 -15.6436 23.502 -72.9716 -53.1016 -48.0182 -1.72166 -9.02526 1.71352 -7.95139e-016 0 -3.18055e-015 -1.59028e-015 0 -6.36111e-015 -1.59028e-015 3.18055e-015 -6.36111e-015 -7.95139e-016 0 -3.18055e-015 0.0129364 0.00231469 -8.30405e-005 0 6.36111e-015 -0 -7.95139e-016 0 -3.18055e-015 0.016298 0.00302526 -0.000872936 -4.77083e-015 -3.18055e-015 9.54166e-015 -7.95139e-016 0 -3.18055e-015 0.0145542 0.00367118 -0.00325797 9.54166e-015 1.59028e-014 -0 -7.95139e-016 0 -3.18055e-015 -1.59028e-015 0 -6.36111e-015 -1.59028e-015 3.18055e-015 -6.36111e-015 -71.3572 -55.6978 -66.6437 -10.2729 74.5162 8.29892 8.07196 9.86117 1.65614 -7.95139e-016 -7.95139e-016 1.2424e-015 74.6659 -42.8519 110.632 77.1733 80.3551 -73.9809 10.4911 35.0005 -18.5922 -1.87784e-006 -1.89343e-005 -4.79552e-006 
